<?xml version="1.0" encoding="UTF-8"?>
<!DOCTYPE svg PUBLIC "-//W3C//DTD SVG 1.1//EN" "http://www.w3.org/Graphics/SVG/1.1/DTD/svg11.dtd">
<!-- Creator: CorelDRAW -->
<svg xmlns="http://www.w3.org/2000/svg" xml:space="preserve" width="15.1308mm" height="15.1308mm" version="1.1" style="shape-rendering:geometricPrecision; text-rendering:geometricPrecision; image-rendering:optimizeQuality; fill-rule:evenodd; clip-rule:evenodd"
viewBox="0 0 35.11 35.11"
 xmlns:xlink="http://www.w3.org/1999/xlink"
 xmlns:xodm="http://www.corel.com/coreldraw/odm/2003">
 <defs>
  <style type="text/css">
   <![CDATA[
    .fil0 {fill:#E6E7E8}
    .fil1 {fill:#BDBDBD}
   ]]>
  </style>
 </defs>
 <g id="Layer_x0020_1">
  <metadata id="CorelCorpID_0Corel-Layer"/>
  <g id="_105553374543904">
   <circle class="fil0" cx="17.55" cy="17.55" r="17.55"/>
   <path class="fil1" d="M12.05 11.53l0.06 2.57c-0.23,0.65 -0.44,0.04 -0.44,1.71 0,1.62 1.01,1.4 1.27,2.24 0.35,1.11 0.33,1.35 1.11,2.53 0.18,0.27 0.32,0.47 0.52,0.73 0.15,0.19 0.48,0.55 0.48,0.77 0,1.79 -0.74,1.6 -1.55,1.84 -0.33,0.1 -0.6,0.19 -0.85,0.28 -3.56,1.29 -5.99,3.18 -7.39,5.89 3.17,3.1 7.5,5.02 12.28,5.02 4.85,0 9.24,-1.97 12.42,-5.15 -1.23,-2.58 -3.5,-4.29 -7.26,-5.73 -0.61,-0.23 -1.15,-0.31 -1.75,-0.51 -0.61,-0.2 -0.75,-0.85 -0.75,-1.64 0,-0.41 1.54,-1.69 2.07,-3.83 0.21,-0.83 -0.12,-0.32 0.51,-0.75 0.89,-0.61 0.95,-2.22 0.71,-2.85 -0.16,-0.41 -0.19,-0.25 -0.29,-0.47 -0.29,-0.6 0.78,-4.1 -1.26,-6.14 -1.7,-1.7 -2.9,-1.54 -5.25,-1.54 -0.67,0 -1.41,0.25 -1.92,0.46 -1.62,0.68 -2.72,2.57 -2.72,4.56z"/>
  </g>
 </g>
</svg>
